<svg width="39" height="39" viewBox="0 0 39 39" fill="none" xmlns="http://www.w3.org/2000/svg">
<circle cx="19.3182" cy="19.5909" r="19.3182" fill="#1814F3"/>
<g clip-path="url(#clip0_20_861)">
<path d="M28.8532 16.2384L27.1834 17.9082C27.0132 18.0785 26.7379 18.0785 26.5676 17.9082L22.547 13.8876C22.3768 13.7174 22.3768 13.4421 22.547 13.2718L24.2168 11.602C24.8942 10.9247 25.9953 10.9247 26.6763 11.602L28.8532 13.779C29.5342 14.4563 29.5342 15.5574 28.8532 16.2384ZM21.1127 14.7062L11.6009 24.218L10.833 28.6189C10.7279 29.213 11.2459 29.7273 11.8399 29.6259L16.2408 28.8544L25.7526 19.3426C25.9229 19.1723 25.9229 18.8971 25.7526 18.7268L21.732 14.7062C21.5582 14.536 21.2829 14.536 21.1127 14.7062ZM15.3136 23.403C15.1144 23.2038 15.1144 22.8851 15.3136 22.6858L20.8917 17.1077C21.0909 16.9085 21.4097 16.9085 21.6089 17.1077C21.8081 17.3069 21.8081 17.6257 21.6089 17.8249L16.0308 23.403C15.8315 23.6022 15.5128 23.6022 15.3136 23.403ZM14.006 26.4493H15.7446V27.7641L13.4083 28.1734L12.2818 27.0469L12.6911 24.7106H14.006V26.4493Z" fill="white"/>
</g>
<defs>
<clipPath id="clip0_20_861">
<rect width="18.5455" height="18.5455" fill="white" transform="translate(10.8182 11.0907)"/>
</clipPath>
</defs>
</svg>
